<?xml version="1.0" encoding="iso-8859-1"?>
<!-- Generator: Adobe Illustrator 19.0.0, SVG Export Plug-In . SVG Version: 6.00 Build 0)  -->
<svg version="1.1" id="Layer_1" xmlns="http://www.w3.org/2000/svg" xmlns:xlink="http://www.w3.org/1999/xlink" x="0px" y="0px"
	 viewBox="0 0 507.965 507.965" style="enable-background:new 0 0 507.965 507.965;" xml:space="preserve">
<g>
	<g>
		<path d="M507.083,238.166c-2.7-7.3-10.8-11-18.1-8.3c-20,7.4-40.4,13.7-61,19.1l-35.7-172.3c-8-40.8-50.9-67.6-93.8-52.7
			c-28.7,10.3-60.3,10.3-89,0c-40.6-13.9-84,8.8-93.9,52.7l-35.6,172.3c-20.7-5.4-41-11.7-61-19.1c-7.3-2.7-15.4,1-18.1,8.3
			c-2.7,7.3,1,15.4,8.3,18.1c160.5,57.6,328.9,57.8,489.6,0C506.083,253.566,509.783,245.466,507.083,238.166z M107.483,255.566
			l13.1-63.2h35.6c7.8,0,14.1-6.3,14.1-14.1c0-7.8-6.3-14.1-14.1-14.1h-29.7l5.8-28.2h59.2c7.8,0,14.1-6.3,14.1-14.1
			s-6.3-14.1-14.1-14.1h-53.3l5.2-25.3c4.4-22.1,29-41.2,56.7-31.8c34.8,12.5,73.2,12.5,108,0c29.3-9.5,52.5,10.7,56.7,31.8
			l35.8,173.1C304.483,276.466,203.483,276.466,107.483,255.566z"/>
	</g>
</g>
<g>
	<g>
		<path d="M450.183,399.566c-8.2-34.8-46.9-61.3-93.3-61.3c-44.3,0-81.4,24-91.9,56.4c-7.7-1.8-14.1-1.8-21.8,0
			c-10.5-32.4-47.7-56.5-92-56.5c-46.5,0-85.2,26.5-93.3,61.3c-6.2,1.5-10.9,7-10.9,13.7s4.7,12.2,10.9,13.7
			c8.2,34.8,46.9,61.3,93.3,61.3c48,0,87.7-28.3,94-64.8c7-2.4,10.7-2.5,17.6-0.1c6.2,36.6,46,64.9,94.1,64.9
			c46.5,0,85.1-26.5,93.3-61.3c6.2-1.5,10.9-7,10.9-13.7C461.083,406.666,456.383,401.066,450.183,399.566z M151.183,460.066
			c-36.2,0-66.8-21.4-66.8-46.7c0-25.3,30.6-46.8,66.8-46.8s66.8,21.4,66.8,46.8C217.983,438.766,187.383,460.066,151.183,460.066z
			 M356.783,460.066c-36.2,0-66.8-21.4-66.8-46.7c0-25.3,30.6-46.8,66.8-46.8c36.2,0,66.8,21.4,66.8,46.8
			C423.583,438.766,392.983,460.066,356.783,460.066z"/>
	</g>
</g>
<g>
</g>
<g>
</g>
<g>
</g>
<g>
</g>
<g>
</g>
<g>
</g>
<g>
</g>
<g>
</g>
<g>
</g>
<g>
</g>
<g>
</g>
<g>
</g>
<g>
</g>
<g>
</g>
<g>
</g>
</svg>
