<?xml version="1.0" encoding="iso-8859-1"?>
<!-- Generator: Adobe Illustrator 19.0.0, SVG Export Plug-In . SVG Version: 6.00 Build 0)  -->
<svg version="1.1" id="Layer_1" xmlns="http://www.w3.org/2000/svg" xmlns:xlink="http://www.w3.org/1999/xlink" x="0px" y="0px"
	 viewBox="0 0 504 504" style="enable-background:new 0 0 504 504;" xml:space="preserve">
<polygon style="fill:#DF5C4E;" points="151.8,500 9.8,353.6 9.8,148.4 151.8,4 357.4,4 501.8,148.4 501.8,353.6 357.4,500 "/>
<path style="fill:#F4EFEF;" d="M373.8,243.6c0-6.4-5.2-11.6-11.6-11.6H141.4c-6.4,0-11.6,5.2-11.6,11.6v16.8
	c0,6.4,5.2,11.6,11.6,11.6h220.8c6.4,0,11.6-5.2,11.6-11.6V243.6z"/>
<path d="M357.4,504H152.2c-1.2,0-2-0.4-2.8-1.2L3.4,356.4c-0.8-0.8-1.2-1.6-1.2-2.8V148.4c0-1.2,0.4-2,1.2-2.8l146-144.4
	c0.8-0.8,1.6-1.2,2.8-1.2h205.2c1.2,0,2,0.4,2.8,1.2l140.4,144.4c0.8,0.8,1.2,1.6,1.2,2.8v205.2c0,1.2-0.4,2-1.2,2.8L360.2,502.8
	C359.4,503.6,358.2,504,357.4,504z M153.8,496h202l138.4-144V150L356.2,8H153.8L9.8,150v202L153.8,496z"/>
<path d="M358.2,276H137.4c-8.8,0-15.6-7.2-15.6-15.6v-16.8c0-8.8,7.2-15.6,15.6-15.6h220.8c8.8,0,15.6,7.2,15.6,15.6v16.8
	C373.8,268.8,366.6,276,358.2,276z M137.4,236c-4.4,0-7.6,3.6-7.6,7.6v16.8c0,4.4,3.6,7.6,7.6,7.6h220.8c4.4,0,7.6-3.6,7.6-7.6
	v-16.8c0-4.4-3.6-7.6-7.6-7.6H137.4z"/>
<g>
</g>
<g>
</g>
<g>
</g>
<g>
</g>
<g>
</g>
<g>
</g>
<g>
</g>
<g>
</g>
<g>
</g>
<g>
</g>
<g>
</g>
<g>
</g>
<g>
</g>
<g>
</g>
<g>
</g>
</svg>
